HIERARCHY
ROOT Hips
{
	OFFSET 0.000000 0.000000 0.000000
	CHANNELS 6 Xposition Yposition Zposition Xrotation Yrotation Zrotation
	JOINT LeftUpLeg_virtual
	{
		OFFSET 0.000000 0.000000 0.000000
		CHANNELS 3 Xrotation Yrotation Zrotation
		JOINT LeftUpLeg
		{
			OFFSET 10.205400 -3.823500 0.155100
			CHANNELS 3 Xrotation Yrotation Zrotation
			JOINT LeftLeg
			{
				OFFSET 0.708757 -12.982077 0.567790
				CHANNELS 3 Xrotation Yrotation Zrotation
				JOINT LeftFoot
				{
					OFFSET -0.708756 -10.717838 -2.184338
					CHANNELS 3 Xrotation Yrotation Zrotation
					JOINT LeftToeBase
					{
						OFFSET 0.108149 -7.191104 7.560241
						CHANNELS 3 Xrotation Yrotation Zrotation
						JOINT LeftToe_End
						{
							OFFSET 0.070230 0.081724 4.490308
							CHANNELS 3 Xrotation Yrotation Zrotation
							End Site
							{
								OFFSET 0 0 0
							}
						}
					}
				}
			}
		}
	}
	JOINT RightUpLeg_virtual
	{
		OFFSET 0.000000 0.000000 0.000000
		CHANNELS 3 Xrotation Yrotation Zrotation
		JOINT RightUpLeg
		{
			OFFSET -10.205400 -3.823500 0.005500
			CHANNELS 3 Xrotation Yrotation Zrotation
			JOINT RightLeg
			{
				OFFSET -0.708756 -12.982134 0.610632
				CHANNELS 3 Xrotation Yrotation Zrotation
				JOINT RightFoot
				{
					OFFSET 0.708754 -10.717769 -1.945823
					CHANNELS 3 Xrotation Yrotation Zrotation
					JOINT RightToeBase
					{
						OFFSET -0.108140 -7.191069 7.372968
						CHANNELS 3 Xrotation Yrotation Zrotation
						JOINT RightToe_End
						{
							OFFSET -0.070227 0.081735 4.479403
							CHANNELS 3 Xrotation Yrotation Zrotation
							End Site
							{
								OFFSET 0 0 0
							}
						}
					}
				}
			}
		}
	}
	JOINT Spine_virtual
	{
		OFFSET 0.000000 0.000000 0.000000
		CHANNELS 3 Xrotation Yrotation Zrotation
		JOINT Spine
		{
			OFFSET 0.000000 6.876099 0.125700
			CHANNELS 3 Xrotation Yrotation Zrotation
			JOINT Spine1
			{
				OFFSET 0.000000 5.730043 0.104720
				CHANNELS 3 Xrotation Yrotation Zrotation
				JOINT Spine1_split
				{
					OFFSET 0.000000 5.730043 0.104720
					CHANNELS 3 Xrotation Yrotation Zrotation
					JOINT Spine2
					{
						OFFSET 0.000000 5.730043 0.104720
						CHANNELS 3 Xrotation Yrotation Zrotation
						JOINT Neck_virtual
						{
							OFFSET 0.000000 0.000000 0.000000
							CHANNELS 3 Xrotation Yrotation Zrotation
							JOINT Neck
							{
								OFFSET 0.000000 10.314075 0.188496
								CHANNELS 3 Xrotation Yrotation Zrotation
								JOINT Head
								{
									OFFSET 0.000000 7.643700 -2.377400
									CHANNELS 3 Xrotation Yrotation Zrotation
									JOINT HeadTop_End
									{
										OFFSET 0.000000 43.788605 -13.619600
										CHANNELS 3 Xrotation Yrotation Zrotation
										End Site
										{
											OFFSET 0 0 0
										}
									}
								}
							}
						}
						JOINT LeftShoulder_virtual
						{
							OFFSET 0.000000 0.000000 0.000000
							CHANNELS 3 Xrotation Yrotation Zrotation
							JOINT LeftShoulder
							{
								OFFSET 2.196100 4.412489 0.087492
								CHANNELS 3 Xrotation Yrotation Zrotation
								JOINT LeftShoulder_split
								{
									OFFSET 2.196100 4.412489 0.087492
									CHANNELS 3 Xrotation Yrotation Zrotation
									JOINT LeftArm
									{
										OFFSET 8.771219 -2.981674 -0.026999
										CHANNELS 3 Xrotation Yrotation Zrotation
										JOINT LeftForeArm
										{
											OFFSET 8.512804 0.000000 -0.000000
											CHANNELS 3 Xrotation Yrotation Zrotation
											JOINT LeftHand
											{
												OFFSET 18.484802 0.000000 -0.000000
												CHANNELS 3 Xrotation Yrotation Zrotation
												End Site
												{
													OFFSET 0 0 0
												}
											}
										}
									}
								}
							}
						}
						JOINT RightShoulder_virtual
						{
							OFFSET 0.000000 0.000000 0.000000
							CHANNELS 3 Xrotation Yrotation Zrotation
							JOINT RightShoulder
							{
								OFFSET -2.196100 4.412496 0.070690
								CHANNELS 3 Xrotation Yrotation Zrotation
								JOINT RightShoulder_split
								{
									OFFSET -2.196100 4.412496 0.070690
									CHANNELS 3 Xrotation Yrotation Zrotation
									JOINT RightArm
									{
										OFFSET -8.771282 -2.981682 -0.094208
										CHANNELS 3 Xrotation Yrotation Zrotation
										JOINT RightForeArm
										{
											OFFSET -8.494598 0.000000 0.000000
											CHANNELS 3 Xrotation Yrotation Zrotation
											JOINT RightHand
											{
												OFFSET -18.483803 0.000000 0.000001
												CHANNELS 3 Xrotation Yrotation Zrotation
												End Site
												{
													OFFSET 0 0 0
												}
											}
										}
									}
								}
							}
						}
					}
				}
			}
		}
	}
}
MOTION
Frames: 5
Frame Time: 0.03333333
-101.312141 34.175095 -4.386175 0.000000 0.000000 0.000000 2.649551 0.747363 0.401994 -6.703116 18.865170 13.960364 17.418799 -8.563152 0.228161 -15.871297 -14.156307 -4.607601 -1.421511 -0.305275 2.855257 0.000000 0.000000 0.000000 1.480376 3.205179 -0.123173 4.047744 -6.406133 -18.691967 12.512325 0.762374 10.935711 -8.330328 -2.837204 6.174593 -7.739477 -0.675839 -2.125846 0.000000 0.000000 0.000000 3.461402 1.095022 -0.458444 0.861771 1.278019 1.126900 2.291214 0.895731 0.426484 0.804125 -1.939870 0.217320 0.000000 0.000000 0.000000 1.849145 0.553186 0.491047 3.573326 -0.444457 -1.532196 -7.327288 -6.257240 1.538279 0.000000 0.000000 0.000000 0.669819 0.444673 0.158853 0.792841 -0.978340 -10.333877 -2.371329 -0.974881 0.187942 8.113323 -17.211926 -62.860861 -0.344253 -21.869615 0.370548 0.000000 0.000000 0.000000 1.365299 0.574404 0.888824 0.661046 5.281891 13.634941 1.513325 2.893280 -3.115798 12.445186 8.616726 63.619947 1.026250 31.317654 0.374077 0.000000 0.000000 0.000000 
-101.246758 34.154785 -4.371563 0.000000 0.000000 0.000000 2.458463 0.895632 0.277356 -7.047183 19.011056 13.911596 17.597808 -8.726130 0.616516 -15.272271 -14.325306 -4.185248 -1.501477 -0.329436 2.658559 0.000000 0.000000 0.000000 1.316133 3.230256 -0.248140 4.054624 -6.276398 -18.415628 12.673586 0.918656 10.858906 -8.664399 -2.743174 6.230599 -7.644261 -0.576472 -2.355972 0.000000 0.000000 0.000000 3.277475 1.094015 -0.496199 0.930557 1.320154 1.292634 2.353044 0.971601 0.439337 0.824886 -1.797682 0.221849 0.000000 0.000000 0.000000 1.727329 0.581549 0.535510 3.391096 -0.482111 -1.716337 -7.806855 -6.649665 1.629071 0.000000 0.000000 0.000000 0.653837 0.507188 0.159118 0.837805 -0.223933 -9.921891 -2.286235 -1.111492 0.350157 7.930986 -17.424668 -62.443174 -0.691157 -24.935685 0.247720 0.000000 0.000000 0.000000 1.414141 0.641546 0.892668 0.694260 5.132054 13.374581 1.402997 2.889313 -2.948338 12.945058 9.967182 61.951373 0.881277 34.368440 0.440783 0.000000 0.000000 0.000000 
-101.168053 34.159435 -4.345232 0.000000 0.000000 0.000000 2.293976 0.967348 0.216049 -7.459962 18.932077 13.794044 17.977160 -8.880733 1.012693 -14.189504 -14.627685 -3.904756 -1.724421 -0.364981 2.510029 0.000000 0.000000 0.000000 1.174553 3.214335 -0.292787 4.062990 -6.096508 -18.097913 12.766656 1.018449 10.610395 -9.075599 -2.670392 6.343460 -7.385559 -0.452331 -2.491453 0.000000 0.000000 0.000000 3.157616 1.061166 -0.463989 0.908940 1.397225 1.424958 2.409523 1.096664 0.453699 0.912262 -1.675055 0.234893 0.000000 0.000000 0.000000 1.589244 0.666605 0.584562 3.389367 -0.537840 -1.877190 -8.259720 -7.043176 1.737292 0.000000 0.000000 0.000000 0.662014 0.624337 0.196178 0.840301 0.700224 -9.179127 -2.096482 -1.162090 0.435168 7.574833 -16.942402 -62.165131 -1.187415 -30.946399 -0.038211 0.000000 0.000000 0.000000 1.441256 0.758860 0.894343 0.750320 4.790753 12.833630 1.435301 2.927540 -2.635827 13.418597 11.040334 59.968829 0.753536 40.023887 0.411620 0.000000 0.000000 0.000000 
-101.094543 34.189751 -4.349169 0.000000 0.000000 0.000000 2.217192 1.056948 0.245456 -7.959978 18.596959 13.558828 18.579680 -8.933731 1.421664 -12.924764 -14.973605 -3.549674 -1.898349 -0.428326 2.521555 0.000000 0.000000 0.000000 1.097970 3.105270 -0.257635 4.076158 -5.862839 -17.751279 12.748120 1.057503 10.182234 -9.360269 -2.635105 6.629075 -7.003188 -0.315898 -2.532912 0.000000 0.000000 0.000000 3.189498 0.983829 -0.350616 0.769056 1.481172 1.514825 2.443261 1.255253 0.448784 1.026782 -1.523692 0.212312 0.000000 0.000000 0.000000 1.467210 0.787254 0.607837 3.597726 -0.581025 -1.989235 -8.652062 -7.334149 1.899485 0.000000 0.000000 0.000000 0.687379 0.772692 0.247326 0.785677 1.674854 -8.243484 -1.854461 -1.110288 0.580585 6.727630 -15.751820 -62.153062 -1.727060 -39.472271 -0.507317 0.000000 0.000000 0.000000 1.439186 0.910523 0.873559 0.806136 4.271169 11.979138 1.531849 2.965124 -2.212623 13.489368 11.539147 57.990150 0.659474 48.078934 0.269798 0.000000 0.000000 0.000000 
-101.024193 34.228977 -4.405624 0.000000 0.000000 0.000000 2.305550 1.177358 0.327727 -8.634974 18.058368 13.161196 19.415620 -8.897176 1.766235 -11.841502 -15.238606 -3.014670 -1.945642 -0.539941 2.731487 0.000000 0.000000 0.000000 1.166563 2.937798 -0.151976 3.900873 -5.626228 -17.475671 12.676210 1.117168 9.623977 -9.479723 -2.632207 7.267407 -6.505900 -0.160407 -2.501089 0.000000 0.000000 0.000000 3.406469 0.886321 -0.156134 0.528475 1.533977 1.546693 2.456182 1.424499 0.406191 1.207738 -1.478922 0.271756 0.000000 0.000000 0.000000 1.396307 0.922226 0.591719 3.904466 -0.591950 -2.026925 -9.037734 -7.405724 2.137687 0.000000 0.000000 0.000000 0.713721 0.927931 0.271795 0.681793 2.562672 -7.269025 -1.719996 -0.967016 0.724621 5.011147 -14.080435 -62.409931 -2.245810 -49.023464 -1.145457 0.000000 0.000000 0.000000 1.421345 1.067559 0.815037 0.838640 3.630018 10.894611 1.645574 2.915831 -1.781379 12.715522 11.344370 56.289921 0.572928 57.574294 0.039281 0.000000 0.000000 0.000000 
